Cats & Dogs The Revenge of Kitty Galore (2010) 1080p MKV-DMT

[IMG]http://img258.imageshack.us/img258/7893/frontre.jpg[/IMG]

Verenigde Staten / Australië
Familie / Komedie
82 minuten

geregisseerd door Brad Peyton
met Chris O'Donnell, de stemmen van Bette Midler en Alec Baldwin

In de eeuwenoude strijd tussen katten en honden, is er nu een kattige kat die het flink uit de klauwen laat lopen. 
Kitty Galore, voorheen een agent voor de kattenspionageorganisatie MIAUWS, 
is voor zichzelf begonnen en heeft een duivels plan bedacht. 
Ze wil niet alleen alle honden voor haar in het stof laten bijten, 
maar ook haar voormalige poezenkameraden ten gronde richten en één grote krabpaal van de wereld maken. 
Katten en honden worden gedwongen de poten ineen te slaan om deze bedreiging af te wenden. 
Voor het eerst in de geschiedenis besluiten ze elkaars bondgenoten te zijn om henzelf en hun baasjes te redden.
------------------------------------------------------------------------------------------------------------------

PLOT

The ongoing war between the canine and feline species is put on hold when they join forces 
to thwart a rogue cat spy with her own sinister plans for conquest.
------------------------------------------------------------------------------------------------------------------- 
http://www.youtube.com/watch?v=NrgUufMyglc

MM:    http://www.moviemeter.nl/film/62892

IMDB:    http://www.imdb.com/title/tt1287468/
-------------------------------------------------------------------------------------------------------------------
INFO

Source........: 1080P BluRay 
FRAME RATE....: 23.976Fps 
VIDEO CODEC...: X264
AUDIO 1.......: DTS
AUDIO CODEC...: AC3
RESOLUTION....: 1920x1080
RUNTIME.......: 82 MINS 
GENERE........: Action | Comedy | Family    
LANGUAGE......: English
SUBTITLES.....: English & Dutch
Thanks To Bradje
--------------------------------------------------------------------------------------------------------------------

Enjoy


PLAYER

General
Complete name                    : Cats.&.Dogs.The.Revenge.of.Kitty.Galore.2010.1080p.MKV-DMT.mkv
Format                           : Matroska
File size                        : 6.92 GiB
Duration                         : 1h 22mn
Overall bit rate                 : 12.0 Mbps
Movie name                       : Cats & Dogs The Revenge of Kitty Galore (2010) 1080P.X264.NL.SUBBED.Bradje
Encoded date                     : UTC 2010-11-09 17:53:36
Writing application              : mkvmerge v3.3.0 ('Language') built on Mar 24 2010 14:59:24
Writing library                  : libebml v0.8.0 + libmatroska v0.9.0

Video
ID                               : 1
Format                           : AVC
Format/Info                      : Advanced Video Codec
Format profile                   : High@L4.1
Format settings, CABAC           : Yes
Format settings, ReFrames        : 4 frames
Format settings, GOP             : M=4, N=32
Muxing mode                      : Container profile=Unknown@4.1
Codec ID                         : V_MPEG4/ISO/AVC
Duration                         : 1h 22mn
Bit rate                         : 9 890 Kbps
Width                            : 1 920 pixels
Height                           : 1 080 pixels
Display aspect ratio             : 16:9
Frame rate                       : 23.976 fps
Color space                      : YUV
Chroma subsampling               : 4:2:0
Bit depth                        : 8 bits
Scan type                        : Progressive
Bits/(Pixel*Frame)               : 0.199
Stream size                      : 5.55 GiB (80%)
Title                            : x264
Writing library                  : x264 core 107 r1745 4785e8e
Encoding settings                : cabac=1 / ref=4 / deblock=1:0:0 / analyse=0x3:0x113 / 
me=umh / subme=7 / psy=1 / psy_rd=1.00:0.15 / mixed_ref=1 / me_range=16 / chroma_me=1 / 
trellis=1 / 8x8dct=1 / cqm=0 / deadzone=21,11 / fast_pskip=0 / chroma_qp_offset=-3 / 
threads=6 / sliced_threads=0 / nr=0 / decimate=1 / interlaced=0 / constrained_intra=0 / 
bframes=3 / b_pyramid=2 / b_adapt=1 / b_bias=0 / direct=1 / weightb=1 / open_gop=0 / 
weightp=2 / keyint=250 / keyint_min=23 / scenecut=40 / intra_refresh=0 / rc_lookahead=40 / 
rc=2pass / mbtree=1 / bitrate=9890 / ratetol=1.0 / qcomp=0.60 / qpmin=10 / qpmax=51 / 
qpstep=4 / cplxblur=20.0 / qblur=0.5 / ip_ratio=1.40 / aq=1:1.00
Language                         : English

Audio #1
ID                               : 2
Format                           : AC-3
Format/Info                      : Audio Coding 3
Mode extension                   : CM (complete main)
Codec ID                         : A_AC3
Duration                         : 1h 22mn
Bit rate mode                    : Constant
Bit rate                         : 640 Kbps
Channel(s)                       : 6 channels
Channel positions                : Front: L C R, Side: L R, LFE
Sampling rate                    : 48.0 KHz
Bit depth                        : 16 bits
Stream size                      : 377 MiB (5%)
Title                            : AC3
Language                         : English

Audio #2
ID                               : 3
Format                           : DTS
Format/Info                      : Digital Theater Systems
Codec ID                         : A_DTS
Duration                         : 1h 22mn
Bit rate mode                    : Constant
Bit rate                         : 1 510 Kbps
Channel(s)                       : 6 channels
Channel positions                : Front: L C R, Side: L R, LFE
Sampling rate                    : 48.0 KHz
Bit depth                        : 24 bits
Stream size                      : 889 MiB (13%)
Title                            : DTS
Language                         : English

Text #1
ID                               : 4
Format                           : UTF-8
Codec ID                         : S_TEXT/UTF8
Codec ID/Info                    : UTF-8 Plain Text
Title                            : Subtitles
Language                         : Dutch

Text #2
ID                               : 5
Format                           : UTF-8
Codec ID                         : S_TEXT/UTF8
Codec ID/Info                    : UTF-8 Plain Text
Title                            : Subtitles
Language                         : English

Menu
00:00:00.000                     : en:Video Start
00:05:00.000                     : en:Chapter 1 - 00 Hr 05 Min
00:10:00.000                     : en:Chapter 2 - 00 Hr 10 Min
00:15:00.000                     : en:Chapter 3 - 00 Hr 15 Min
00:20:00.000                     : en:Chapter 4 - 00 Hr 20 Min
00:25:00.000                     : en:Chapter 5 - 00 Hr 25 Min
00:30:00.000                     : en:Chapter 6 - 00 Hr 30 Min
00:35:00.000                     : en:Chapter 7 - 00 Hr 35 Min
00:40:00.000                     : en:Chapter 8 - 00 Hr 40 Min
00:45:00.000                     : en:Chapter 9 - 00 Hr 45 Min
00:50:00.000                     : en:Chapter 10 - 00 Hr 50 Min
00:55:00.000                     : en:Chapter 11 - 00 Hr 55 Min
01:00:00.000                     : en:Chapter 12 - 01 Hr 00 Min
01:05:00.000                     : en:Chapter 13 - 01 Hr 05 Min
01:10:00.000                     : en:Chapter 14 - 01 Hr 10 Min
01:15:00.000                     : en:Chapter 15 - 01 Hr 15 Min
01:20:00.000                     : en:Chapter 16 - 01 Hr 20 Min



